<?xml version="1.0" encoding="iso-8859-1"?>
<!-- Uploaded to: SVG Repo, www.svgrepo.com, Generator: SVG Repo Mixer Tools -->
<!DOCTYPE svg PUBLIC "-//W3C//DTD SVG 1.1//EN" "http://www.w3.org/Graphics/SVG/1.1/DTD/svg11.dtd">
<svg fill="#000000" height="800px" width="800px" version="1.1" id="Capa_1" xmlns="http://www.w3.org/2000/svg" xmlns:xlink="http://www.w3.org/1999/xlink" 
	 viewBox="0 0 330.818 330.818" xml:space="preserve">
<g>
	<path d="M272.59,132.159c-13.279-17.203-32.414-38.5-53.881-59.967c-21.467-21.466-42.764-40.602-59.967-53.881
		C135.766,0.573,124.809-3.608,118.321,2.887c-6.494,6.491-2.313,17.447,15.422,40.424c13.279,17.203,32.416,38.5,53.881,59.967
		c22.5,22.499,44.881,42.437,62.104,55.505H47.428c-4.142,0-7.5,3.357-7.5,7.5v21.66c0,3.441,2.321,6.335,5.481,7.217v99.281
		c-3.16,0.882-5.481,3.775-5.481,7.217v21.661c0,4.143,3.358,7.5,7.5,7.5h235.948c4.143,0,7.5-3.357,7.5-7.5v-21.661
		c0-3.441-2.32-6.334-5.48-7.217v-99.281c3.16-0.883,5.48-3.775,5.48-7.217v-21.66c0-0.021-0.004-0.04-0.004-0.061
		C291.266,159.321,285.553,148.953,272.59,132.159z M135.442,20.011c14.211,9.167,40.563,30.691,72.66,62.789
		c31.99,31.99,53.478,58.274,62.697,72.518c-16.939-10.805-44.527-34.605-72.568-62.647
		C166.133,60.572,144.61,34.221,135.442,20.011z M275.875,315.818H54.928v-6.661h220.948V315.818z M191.078,273.698
		c4.143,0,7.5-3.358,7.5-7.5v-42.797c0-4.143-3.357-7.5-7.5-7.5H60.409v-20.459h209.986v98.715H60.409v-20.459H191.078z
		 M60.409,258.698v-27.797h123.169v27.797H60.409z M275.875,180.442H54.928v-6.66h220.948V180.442z"/>
</g>
</svg>