<?xml version="1.0" encoding="iso-8859-1"?>
<!-- Uploaded to: SVG Repo, www.svgrepo.com, Generator: SVG Repo Mixer Tools -->
<!DOCTYPE svg PUBLIC "-//W3C//DTD SVG 1.1//EN" "http://www.w3.org/Graphics/SVG/1.1/DTD/svg11.dtd">
<svg fill="#000000" height="800px" width="800px" version="1.1" id="Capa_1" xmlns="http://www.w3.org/2000/svg" xmlns:xlink="http://www.w3.org/1999/xlink" 
	 viewBox="0 0 440 440" xml:space="preserve">
<g>
	<path d="M336.141,0H103.859c-5.522,0-10,4.477-10,10v60c0,5.523,4.478,10,10,10H111v350c0,5.523,4.478,10,10,10h146.519h0.001H319
		c5.522,0,10-4.477,10-10V80h7.141c5.522,0,10-4.477,10-10V10C346.141,4.477,341.663,0,336.141,0z M302.7,60h-16.74V20h16.74V60z
		 M139,20h16.74v40H139V20z M175.74,20h16.74v40h-16.74V20z M212.48,20h16.74v40h-16.74V20z M249.22,20h16.74v40h-16.74V20z
		 M113.859,60V20H119v40H113.859z M131,420v-17.338L148.338,420H131z M199.22,414.099c-3.807,3.806-8.867,5.901-14.25,5.901
		s-10.443-2.096-14.249-5.901l-35.579-35.579l6.52-6.52h57.059c-3.39,3.929-3.23,9.863,0.498,13.591
		c3.806,3.806,5.901,8.866,5.901,14.249C205.12,405.229,203.024,410.293,199.22,414.099z M219.707,420
		c3.223-5.536,5.074-11.78,5.368-18.311L243.381,420H219.707z M231.951,380.279c-2.355-2.356-4.052-5.19-5.009-8.279h81.158
		c-0.955,3.092-2.649,5.926-5.002,8.279l-35.578,35.578L231.951,380.279z M309,420h-17.338L309,402.662V420z M309,352H131V178h178
		V352z M131,142.03c0-5.384,2.096-10.444,5.901-14.25c3.809-3.808,8.87-5.906,14.254-5.906c5.383,0,10.444,2.098,14.253,5.906
		c1.876,1.875,4.419,2.929,7.071,2.929c0.001,0,0.003,0,0.004,0c2.653-0.001,5.198-1.057,7.073-2.935
		c3.795-3.802,8.854-5.896,14.243-5.896s10.448,2.094,14.249,5.901c3.812,3.812,5.911,8.873,5.911,14.25
		c0,5.376-2.1,10.437-5.91,14.249L206.328,158h-67.707l-1.721-1.721C133.096,152.474,131,147.414,131,142.03z M232.432,158
		l35.088-35.089L302.617,158H232.432z M309,136.1l-34.41-34.402c-3.906-3.904-10.237-3.904-14.142,0.001l-28.317,28.317
		c-1.91-6.111-5.277-11.713-9.934-16.372c-7.574-7.586-17.659-11.765-28.397-11.765c-7.666,0-14.998,2.129-21.322,6.108
		c-6.329-3.981-13.663-6.113-21.322-6.113c-7.196,0-14.098,1.889-20.155,5.417V80h178V136.1z M326.141,60h-3.44V20h3.44V60z"/>
	<path d="M212.929,327.071C214.882,329.024,217.44,330,220,330s5.118-0.976,7.071-2.929l42.646-42.646
		c7.584-7.584,11.761-17.668,11.761-28.395s-4.178-20.81-11.762-28.394c-7.584-7.585-17.668-11.762-28.394-11.762
		c-7.661,0-14.994,2.131-21.323,6.112c-6.329-3.981-13.662-6.112-21.323-6.112c-10.727,0-20.811,4.177-28.395,11.761
		c-15.656,15.657-15.656,41.132,0,56.789L212.929,327.071z M184.425,241.779c3.807-3.807,8.868-5.903,14.252-5.903
		s10.445,2.097,14.252,5.903c1.875,1.875,4.419,2.929,7.071,2.929s5.196-1.054,7.071-2.929c3.807-3.807,8.868-5.903,14.252-5.903
		c5.383,0,10.445,2.097,14.252,5.904c7.858,7.858,7.858,20.645,0,28.503L220,305.858l-35.575-35.575
		C176.566,262.424,176.566,249.638,184.425,241.779z"/>
</g>
</svg>